
        <svg xmlns="http://www.w3.org/2000/svg" xmlns:xlink="http://www.w3.org/1999/xlink" version="1.1" width="3162.111047853983" height="857.9025293215094" viewBox="0 0 3162.111047853983 857.9025293215094">
			
			<g transform="scale(8.10555239269914) translate(10, 10)">
				<defs id="SvgjsDefs1679"/><g id="SvgjsG1680" featureKey="HKaMnE-0" transform="matrix(1.323903989122104,0,0,1.323903989122104,-9.23002949766475,-5.155009347765102)" fill="#fff"><title xmlns="http://www.w3.org/2000/svg">Artboard 14</title><path xmlns="http://www.w3.org/2000/svg" d="M11.67822,45.29346l.40771.12891c4.46582,1.41113,5.97021,1.88623,5.95361,5.82568-.01758,4.2085-.00049,6.76709.00439,6.76807a4.49425,4.49425,0,0,0,.89014,3.38623c1.10645,1.42578,3.0835,2.23193,5.87646,2.39648l.01465.00049a.24246.24246,0,0,0,.08545-.01514,8.259,8.259,0,0,0,4.26416-4.29053.25.25,0,0,0-.45508-.207,7.96723,7.96723,0,0,1-3.93506,4.00977c-2.6084-.16211-4.44189-.90039-5.4502-2.19385a4.10058,4.10058,0,0,1-.79492-3.0415c0-.00049-.01758-2.56592,0-6.811.01758-4.16895-1.71533-4.85059-5.87988-6.17041,6.23828-1.74658,6.063-4.936,5.80273-9.66309-.05127-.92822-.104-1.8877-.11768-2.93066a5.48793,5.48793,0,0,1,1.584-4.32471,6.70018,6.70018,0,0,1,4.3877-1.46387c.27441,0,.43359.01367.43066.01221a8.29444,8.29444,0,0,1,3.98535,2.91016.25.25,0,0,0,.42969-.25586,8.62524,8.62524,0,0,0-4.311-3.14014A7.40083,7.40083,0,0,0,19.59375,27.79a5.96117,5.96117,0,0,0-1.749,4.70264c.01367,1.05322.06689,2.01807.11865,2.95117.27588,5.01221.42773,7.77295-6.26758,9.36816a.25.25,0,0,0-.01758.48145Z"/><path xmlns="http://www.w3.org/2000/svg" d="M72.30078,32.49268a5.96117,5.96117,0,0,0-1.749-4.70264,7.376,7.376,0,0,0-5.30957-1.55518,8.66244,8.66244,0,0,0-4.25879,3.12891.25.25,0,0,0,.42969.25586,8.3628,8.3628,0,0,1,3.93311-2.89893,7.02844,7.02844,0,0,1,4.87061,1.44043,5.48793,5.48793,0,0,1,1.584,4.32471c-.01367,1.043-.06641,2.00293-.11768,2.93066-.26025,4.72705-.43555,7.9165,5.80225,9.66309-4.16455,1.31982-5.897,2.00146-5.87939,6.17041.01758,4.24512,0,6.81055.00439,6.86084a4.03,4.03,0,0,1-.79395,2.98486c-1.00684,1.29785-2.84229,2.03809-5.45557,2.20068a7.96535,7.96535,0,0,1-3.93506-4.00977.25.25,0,0,0-.45508.207,8.25722,8.25722,0,0,0,4.26416,4.29053.24246.24246,0,0,0,.08545.01514l.01465-.00049c2.793-.16455,4.77-.9707,5.87646-2.39648a4.45422,4.45422,0,0,0,.89453-3.3374s.01758-2.56787,0-6.81689c-.0166-3.93945,1.4873-4.41455,5.95264-5.82568l.4082-.12891a.25.25,0,0,0-.01758-.48145c-6.69482-1.59521-6.543-4.356-6.26709-9.36768C72.23389,34.51074,72.28711,33.5459,72.30078,32.49268Z"/><path xmlns="http://www.w3.org/2000/svg" d="M35.48828,68.5791,55.11768,21.61328a.24974.24974,0,1,0-.46094-.19238L35.02734,68.38672a.24974.24974,0,1,0,.46094.19238Z"/></g><g id="SvgjsG1681" featureKey="J3GnXt-0" transform="matrix(3.532421012620443,0,0,3.532421012620443,105.67952909917882,12.761785054158732)" fill="#fff"><path d="M8.32 5.48 c1 0 1.9367 0.18664 2.81 0.55998 s1.59 0.92 2.15 1.64 l-1.6 1.22 c-0.86666 -1.08 -2.0066 -1.62 -3.42 -1.62 c-1.5333 0 -2.7966 0.54666 -3.79 1.64 s-1.49 2.4666 -1.49 4.12 c0 1.6 0.49 2.92 1.47 3.96 s2.25 1.56 3.81 1.56 s2.7934 -0.63334 3.7 -1.9 l1.62 1.22 c-0.56 0.74666 -1.3067 1.3467 -2.24 1.8 s-1.9733 0.68 -3.12 0.68 c-1.36 0 -2.5934 -0.33 -3.7 -0.99 s-1.98 -1.5667 -2.62 -2.72 s-0.96 -2.3634 -0.96 -3.63 c0 -2.1866 0.68666 -3.99 2.06 -5.41 s3.1466 -2.13 5.32 -2.13 z M17.240000000000002 4.880000000000001 l0.000019531 7.1 l0.04 0 c0.25334 -0.53334 0.66334 -0.95 1.23 -1.25 s1.1967 -0.45 1.89 -0.45 c1.0533 0 1.89 0.32 2.51 0.96 s0.93 1.5 0.93 2.58 l0 6.18 l-1.8 0 l0 -5.66 c0 -0.73334 -0.19 -1.3133 -0.57 -1.74 s-0.91 -0.64 -1.59 -0.64 c-0.84 0 -1.4867 0.27334 -1.94 0.82 s-0.68668 1.3 -0.70002 2.26 l0 4.96 l-1.8 0 l0 -15.12 l1.8 0 z M27.6 5.800000000000001 c0.36 0 0.67002 0.13002 0.93002 0.39002 s0.39 0.57 0.39 0.93 c0 0.37334 -0.13334 0.68668 -0.4 0.94002 s-0.57332 0.38 -0.91998 0.38 c-0.37334 0 -0.68668 -0.12666 -0.94002 -0.38 s-0.38 -0.56668 -0.38 -0.94002 s0.13334 -0.68668 0.4 -0.94002 s0.57332 -0.38 0.91998 -0.38 z M28.500000000000004 10.52 l0 9.48 l-1.8 0 l0 -9.48 l1.8 0 z M36.120000000000005 10.28 c1.3733 0 2.36 0.58666 2.96 1.76 c0.30666 -0.56 0.72666 -0.99334 1.26 -1.3 s1.1133 -0.46 1.74 -0.46 c2.3866 0 3.5866 1.3733 3.6 4.12 l0 5.6 l-1.8 0 l0 -5.38 c0 -0.93334 -0.16666 -1.61 -0.5 -2.03 s-0.84668 -0.63 -1.54 -0.63 c-0.81334 0 -1.42 0.24666 -1.82 0.74 s-0.6 1.1733 -0.6 2.04 l0 5.26 l-1.8 0 l0 -5.1 c0 -1.12 -0.16 -1.89 -0.48 -2.31 s-0.82666 -0.63 -1.52 -0.63 c-0.74666 0 -1.3433 0.28666 -1.79 0.86 s-0.67 1.3 -0.67 2.18 l0 5 l-1.8 0 l0 -9.48 l1.68 0 l0 1.48 l0.04 0 c0.2 -0.46666 0.59666 -0.87 1.19 -1.21 s1.21 -0.51 1.85 -0.51 z M52.980000000000004 10.28 c1.4 0 2.5866 0.48338 3.56 1.45 s1.4667 2.1434 1.48 3.53 c0 1.4 -0.48666 2.5734 -1.46 3.52 s-2.1666 1.4333 -3.58 1.46 c-1.3867 0 -2.5666 -0.48 -3.54 -1.44 s-1.4733 -2.14 -1.5 -3.54 c0 -1.3733 0.48334 -2.54 1.45 -3.5 s2.1634 -1.4533 3.59 -1.48 z M49.86000000000001 15.26 c0 0.97334 0.28664 1.7633 0.85998 2.37 s1.3267 0.91666 2.26 0.93 c0.94666 0 1.7 -0.30334 2.26 -0.91 s0.84666 -1.4033 0.86 -2.39 c0 -0.97334 -0.28 -1.7633 -0.84 -2.37 s-1.3267 -0.91666 -2.3 -0.93 c-0.94666 0 -1.7 0.31334 -2.26 0.94 s-0.84 1.4133 -0.84 2.36 z M62.08000000000001 4.880000000000001 l0.000019531 7 l0.04 0 c0.32 -0.49334 0.78334 -0.88334 1.39 -1.17 s1.2433 -0.43 1.91 -0.43 c1.4267 0 2.5866 0.47 3.48 1.41 s1.34 2.13 1.34 3.57 c0 1.4267 -0.43666 2.6066 -1.31 3.54 s-2.0366 1.4133 -3.49 1.44 c-0.65334 0 -1.2833 -0.14 -1.89 -0.42 s-1.0833 -0.67334 -1.43 -1.18 l-0.04 0 l0 1.36 l-1.8 0 l0 -15.12 l1.8 0 z M62.08000000000001 15.26 c0 0.98666 0.28338 1.7767 0.85004 2.37 s1.3233 0.90334 2.27 0.93 c0.94666 0 1.7033 -0.30666 2.27 -0.92 s0.85 -1.4067 0.85 -2.38 s-0.28 -1.7633 -0.84 -2.37 s-1.3267 -0.91666 -2.3 -0.93 c-0.94666 0 -1.7 0.31 -2.26 0.93 s-0.84 1.41 -0.84 2.37 z M73.54000000000002 5.800000000000001 c0.36 0 0.67002 0.13002 0.93002 0.39002 s0.39 0.57 0.39 0.93 c0 0.37334 -0.13334 0.68668 -0.4 0.94002 s-0.57332 0.38 -0.91998 0.38 c-0.37334 0 -0.68668 -0.12666 -0.94002 -0.38 s-0.38 -0.56668 -0.38 -0.94002 s0.13334 -0.68668 0.4 -0.94002 s0.57332 -0.38 0.91998 -0.38 z M74.44000000000001 10.52 l0 9.48 l-1.8 0 l0 -9.48 l1.8 0 z"/></g>
			</g>
		</svg>
	